<svg xmlns="http://www.w3.org/2000/svg" viewBox="0 0 16.933 16.933" width="24" height="24"><g transform="translate(0 -280.067)"><path fill="#fc6067" d="M 8.4666675,280.86039 H 1.3229174 c -0.2931584,0 -0.52916664,0.23601 -0.52916664,0.52916 v 14.2875 c 0,0.29316 0.23600824,0.52917 0.52916664,0.52917 h 7.1437501 z"/><path fill="#e7ebef" d="m 8.4666675,280.86039 v 15.34583 h 7.1437505 c 0.293158,0 0.529166,-0.23601 0.529166,-0.52917 v -14.2875 c 0,-0.29315 -0.236008,-0.52916 -0.529166,-0.52916 z"/><path fill="#fcb860" d="M4.6302091 282.44789c-1.7197919 0-1.984375 1.26577-1.984375 1.85208v1.32292c0 .58632.4720164 1.05833 1.0583333 1.05833h1.8520834c.5863169 0 1.0583333-.47201 1.0583333-1.05833v-1.32292c0-.58631-.2645838-1.85209-1.984375-1.85208zM12.30106 290.26912l-2.5114753 4.3496h5.0270833a5.0270762 5.0270762 0 0 0-2.515608-4.3496z"/><path fill="#fdd5a6" d="m 11.772409,291.18482 -1.9828248,3.4339 h 3.9687498 c -0.0013,-1.41709 -0.758361,-2.72589 -1.985925,-3.4339 z"/><path fill="#dbe1e7" d="m 15.138095,280.86039 c 0.127717,0.14092 0.207739,0.3257 0.207739,0.52916 v 14.28699 c 0,0.20332 -0.08018,0.3882 -0.207739,0.52968 h 0.472323 c 0.293158,0 0.529166,-0.23601 0.529166,-0.52917 v -14.2875 c 0,-0.29315 -0.236008,-0.52916 -0.529166,-0.52916 z" color="#000" font-family="sans-serif" font-weight="400" overflow="visible" style="line-height:normal;font-variant-ligatures:normal;font-variant-position:normal;font-variant-caps:normal;font-variant-numeric:normal;font-variant-alternates:normal;font-feature-settings:normal;text-indent:0;text-align:start;text-decoration-line:none;text-decoration-style:solid;text-decoration-color:#000;text-transform:none;text-orientation:mixed;shape-padding:0;isolation:auto;mix-blend-mode:normal"/><path fill="#fbb04f" d="M4.7800707 282.45512c.2768484.14336.4911979.33247.6438884.54415.3277653.45441.3963583.96775.3963583 1.3007v1.32188c0 .4338-.2132486.81739-.5374349 1.05937h.2733683c.5863169 0 1.0583333-.47201 1.0583333-1.05833v-1.32292c0-.56836-.2526792-1.77148-1.8345134-1.84485zM10.247437 293.82549l-.4578528.79323h5.0270838a5.0270762 5.0270762 0 0 0-.07028-.79323z" color="#000" font-family="sans-serif" font-weight="400" overflow="visible" style="line-height:normal;font-variant-ligatures:normal;font-variant-position:normal;font-variant-caps:normal;font-variant-numeric:normal;font-variant-alternates:normal;font-feature-settings:normal;text-indent:0;text-align:start;text-decoration-line:none;text-decoration-style:solid;text-decoration-color:#000;text-transform:none;text-orientation:mixed;shape-padding:0;isolation:auto;mix-blend-mode:normal"/><path fill="#fdcc93" d="m 10.247437,293.82549 -0.4578528,0.79323 h 3.9687498 c -2.46e-4,-0.26952 -0.02817,-0.53494 -0.08113,-0.79323 z" color="#000" font-family="sans-serif" font-weight="400" overflow="visible" style="line-height:normal;font-variant-ligatures:normal;font-variant-position:normal;font-variant-caps:normal;font-variant-numeric:normal;font-variant-alternates:normal;font-feature-settings:normal;text-indent:0;text-align:start;text-decoration-line:none;text-decoration-style:solid;text-decoration-color:#000;text-transform:none;text-orientation:mixed;shape-padding:0;isolation:auto;mix-blend-mode:normal"/><path fill="#b38051" d="m 2.6458328,284.29997 h 3.9687505 c 0.2931581,0 0.5291664,0.23601 0.5291664,0.52917 v 0 c 0,0.29316 -0.2360083,0.52916 -0.5291664,0.52916 H 2.6458328 c -0.2931582,0 -0.5291665,-0.236 -0.5291665,-0.52916 v 0 c 0,-0.29316 0.2360083,-0.52917 0.5291665,-0.52917 z"/><path fill="#a77649" d="m 6.1417449,284.29997 c 0.1278369,0.14092 0.2082559,0.32571 0.2082559,0.52917 0,0.20346 -0.080419,0.38825 -0.2082559,0.52916 h 0.4728392 c 0.2931584,0 0.5291667,-0.236 0.5291667,-0.52916 0,-0.29316 -0.2360083,-0.52917 -0.5291667,-0.52917 z" color="#000" font-family="sans-serif" font-weight="400" overflow="visible" style="line-height:normal;font-variant-ligatures:normal;font-variant-position:normal;font-variant-caps:normal;font-variant-numeric:normal;font-variant-alternates:normal;font-feature-settings:normal;text-indent:0;text-align:start;text-decoration-line:none;text-decoration-style:solid;text-decoration-color:#000;text-transform:none;text-orientation:mixed;shape-padding:0;isolation:auto;mix-blend-mode:normal"/><path d="m 1.3224006,280.59684 c -0.43516127,0 -0.79323313,0.35755 -0.79323313,0.79271 v 14.28699 c 0,0.43516 0.35807246,0.7953 0.79323313,0.7953 H 15.611452 c 0.435161,0 0.792716,-0.36014 0.792716,-0.7953 v -8.73022 c -0.0077,-0.34503 -0.521508,-0.34503 -0.529167,0 v 8.73022 c 0,0.15115 -0.112393,0.26613 -0.263549,0.26613 H 8.7302174 v -14.81873 h 6.8812346 c 0.151155,0 0.263549,0.11446 0.263549,0.26561 v 3.17604 c 0.0077,0.34503 0.521509,0.34503 0.529167,0 v -3.17604 c 0,-0.43516 -0.357555,-0.79271 -0.792716,-0.79271 z m 0,0.5271 h 6.8786501 v 14.81873 H 1.3224006 c -0.1511558,0 -0.2635499,-0.11498 -0.2635498,-0.26613 v -14.28699 c 0,-0.15115 0.1123946,-0.26561 0.2635498,-0.26561 z m 3.3083252,1.05885 c -0.9248073,0 -1.523801,0.36209 -1.8515666,0.81648 -0.2639651,0.36596 -0.3576602,0.76521 -0.3855061,1.08263 -0.3125639,0.10686 -0.5420858,0.40079 -0.5420858,0.74724 0,0.3417 0.2231967,0.63671 0.5291667,0.74724 0,0.89995 0.7096744,1.36994 1.3244669,1.36994 h 1.8515666 c 0.6813407,0 1.3218832,-0.49952 1.3218832,-1.36684 0.306563,-0.10992 0.5296834,-0.40784 0.5296834,-0.75034 0,-0.34685 -0.2289534,-0.64121 -0.541569,-0.74776 -0.027414,-0.31734 -0.1206545,-0.71636 -0.3844726,-1.08211 -0.3277656,-0.45439 -0.926759,-0.81649 -1.8515667,-0.81648 z m 5.1583416,0 c -0.3606638,-0.008 -0.3606638,0.53714 0,0.52916 h 2.9099006 c 0.345064,-0.008 0.345064,-0.52153 0,-0.52916 z m 3.9687506,0 c -0.360664,-0.008 -0.360664,0.53714 0,0.52916 h 1.058333 c 0.345064,-0.008 0.345064,-0.52153 0,-0.52916 z m -9.1270922,0.52916 c 0.7949838,0 1.1876612,0.27284 1.4221355,0.5979 0.1648079,0.22848 0.2415333,0.49752 0.2744017,0.72657 H 2.9321215 c 0.032867,-0.22905 0.1101066,-0.49808 0.2749187,-0.72657 0.234474,-0.32506 0.6287011,-0.5979 1.4236856,-0.5979 z m 5.1583416,1.05834 c -0.3531216,0 -0.3531216,0.52968 0,0.52968 h 2.9099006 c 0.353122,0 0.353122,-0.52968 0,-0.52968 z m 3.9687506,0 c -0.353122,0 -0.353122,0.52968 0,0.52968 h 1.058333 c 0.353122,0 0.353122,-0.52968 0,-0.52968 z m -11.1114673,0.7953 h 3.9687502 c 0.1511556,0 0.2635498,0.11239 0.2635498,0.26355 0,0.15115 -0.1123952,0.26355 -0.2635498,0.26355 H 2.6463507 c -0.1511555,0 -0.2656167,-0.1124 -0.2656167,-0.26355 0,-0.15116 0.1144622,-0.26355 0.2656167,-0.26355 z m 7.1303144,0.79271 c -0.3657822,0.0169 -0.3407185,0.54657 0.012401,0.52969 h 2.9099009 c 0.353121,0 0.353121,-0.52969 0,-0.52969 z m 3.9682339,0 c -0.365782,0.0169 -0.340202,0.54657 0.01292,0.52969 h 1.058333 c 0.353122,0 0.353122,-0.52969 0,-0.52969 z m 2.394686,0 c -0.132292,0.003 -0.264584,0.0929 -0.264584,0.26355 v 0.26614 c 0.0077,0.34503 0.521509,0.34503 0.529167,0 v -0.26614 c 0,-0.18082 -0.132292,-0.26608 -0.264583,-0.26355 z m -13.2296843,0.26355 h 3.4395834 c 0,0.44432 -0.3483999,0.7953 -0.7927166,0.7953 H 3.7052009 c -0.4443166,0 -0.7953002,-0.35097 -0.7953002,-0.7953 z m 6.8667644,1.32447 c -0.3572672,0.0242 -0.3329419,0.53796 0.012401,0.52917 h 2.9099009 c 0.360664,0.008 0.360664,-0.53714 0,-0.52917 z m 3.9682339,0 c -0.357267,0.0242 -0.332425,0.53796 0.01292,0.52917 h 1.058333 c 0.360664,0.008 0.360664,-0.53714 0,-0.52917 z m -11.6416674,1.05885 c -0.3584142,0.0254 -0.3315517,0.53945 0.013953,0.52917 h 2.9104167 c 0.3606948,0.008 0.3606948,-0.53717 0,-0.52917 z m 3.9692668,0 c -0.3747183,0.0107 -0.3467688,0.55576 0.013436,0.52917 H 7.144784 c 0.3606948,0.008 0.3606948,-0.53717 0,-0.52917 z m 6.6559256,0.52813 c -0.0098,-2e-4 -0.01966,1.2e-4 -0.02946,10e-4 H 9.7766651 c -0.3372416,0.0403 -0.314551,0.51805 0.012401,0.52709 h 2.9099009 c 0.362804,0.0318 0.393547,-0.5194 0.02946,-0.52813 z m 2.102197,5.3e-4 -1.085205,5.3e-4 c -0.337242,0.0403 -0.314551,0.51806 0.0124,0.5271 h 1.058333 c 0.362804,0.0318 0.39329,-0.5194 0.01447,-0.52761 z m -12.7134368,1.05679 c -0.3531234,0 -0.3531234,0.52968 0,0.52968 h 2.9104166 c 0.3531233,0 0.3531233,-0.52968 0,-0.52968 z m 3.96875,0 c -0.3531232,0 -0.3531232,0.52968 0,0.52968 h 1.0588501 c 0.3531232,0 0.3531232,-0.52968 0,-0.52968 z m 6.2316618,0.41754 c -0.106521,-0.0141 -0.185986,0.0267 -0.245463,0.12971 l -2.5114753,4.34961 c -0.101042,0.17599 0.025474,0.39553 0.2284097,0.39635 h 5.0270836 c 0.147129,8e-4 0.266695,-0.11848 0.266134,-0.26561 -0.0019,-1.88906 -1.012511,-3.63427 -2.648934,-4.57802 -0.0418,-0.0167 -0.08025,-0.0273 -0.115755,-0.032 z m 0.07906,0.6289 c 1.253368,0.82502 2.059865,2.21976 2.149739,3.71761 h -0.532267 c -0.0837,-1.3209 -0.782403,-2.52742 -1.885673,-3.25872 z m -10.2794768,0.54157 c -0.3606948,-0.008 -0.3606948,0.53718 0,0.52917 h 2.9104166 c 0.3606951,0.008 0.3606951,-0.53717 0,-0.52917 z m 3.96875,0 c -0.3606946,-0.008 -0.3606946,0.53718 0,0.52917 h 1.05885 c 0.3606949,0.008 0.3606949,-0.53717 0,-0.52917 z m 5.7784598,0.37518 c 0.94086,0.63582 1.537983,1.66826 1.619539,2.80086 h -3.235974 z m 0.04186,0.94824 a 0.26458336,0.26458336 0 0 0 -0.264583,0.26459 0.26458336,0.26458336 0 0 0 0.264583,0.26458 0.26458336,0.26458336 0 0 0 0.264584,-0.26458 0.26458336,0.26458336 0 0 0 -0.264584,-0.26459 z m -9.8025027,0.26459 c -0.3584136,0.0254 -0.3320684,0.53944 0.013436,0.52916 H 5.027599 c 0.3606951,0.008 0.3606951,-0.53717 0,-0.52916 z m 3.9687502,0 c -0.3747182,0.0107 -0.3467687,0.55575 0.013436,0.52916 h 1.0588501 c 0.3606948,0.008 0.3606948,-0.53717 0,-0.52916 z m 5.3045865,0.79375 a 0.26458336,0.26458336 0 0 0 -0.264584,0.26458 0.26458336,0.26458336 0 0 0 0.264584,0.26458 0.26458336,0.26458336 0 0 0 0.264583,-0.26458 0.26458336,0.26458336 0 0 0 -0.264583,-0.26458 z m 1.322916,0 a 0.26458336,0.26458336 0 0 0 -0.264583,0.26458 0.26458336,0.26458336 0 0 0 0.264583,0.26458 0.26458336,0.26458336 0 0 0 0.264584,-0.26458 0.26458336,0.26458336 0 0 0 -0.264584,-0.26458 z m -10.5962507,0.79426 c -0.3584136,0.0254 -0.3320684,0.53945 0.013436,0.52917 H 5.027601 c 0.3606948,0.008 0.3606948,-0.53717 0,-0.52917 z m 3.9687501,0 c -0.3584133,0.0254 -0.332069,0.53945 0.013436,0.52917 H 7.144784 c 0.3606948,0.008 0.3606948,-0.53717 0,-0.52917 z" color="#000" font-family="sans-serif" font-weight="400" overflow="visible" style="line-height:normal;font-variant-ligatures:normal;font-variant-position:normal;font-variant-caps:normal;font-variant-numeric:normal;font-variant-alternates:normal;font-feature-settings:normal;text-indent:0;text-align:start;text-decoration-line:none;text-decoration-style:solid;text-decoration-color:#000;text-transform:none;text-orientation:mixed;shape-padding:0;isolation:auto;mix-blend-mode:normal"/></g></svg>