<svg xmlns="http://www.w3.org/2000/svg" viewBox="0 0 64 64" width="64" height="64"><path fill="#ffcd00" d="M57 3H25a4 4 0 0 0-4 4v20a4 4 0 0 0 4 4h19v6l7-6h6a4 4 0 0 0 4-4V7a4 4 0 0 0-4-4Z"/><path fill="#ebbf00" d="M57 3h-1v8a16 16 0 0 1-16 16H21a4 4 0 0 0 4 4h19v6l7-6h6a4 4 0 0 0 4-4V7a4 4 0 0 0-4-4Z"/><path fill="#ed1c24" d="M33.37 47a13.361 13.361 0 0 1-.79 1.92l3.98 3.98-5.66 5.66-3.98-3.98a13.361 13.361 0 0 1-1.92.79V61h-8v-5.63a13.361 13.361 0 0 1-1.92-.79l-3.98 3.98-5.66-5.66 3.98-3.98A13.361 13.361 0 0 1 8.63 47H3v-8h5.63a13.361 13.361 0 0 1 .79-1.92L5.44 33.1l5.66-5.66 3.98 3.98a13.361 13.361 0 0 1 1.92-.79V25h8v5.63a13.361 13.361 0 0 1 1.92.79l3.98-3.98 5.66 5.66-3.98 3.98a13.361 13.361 0 0 1 .79 1.92H39v8Z"/><circle cx="21" cy="43" r="6" fill="#ffcd00"/><path fill="#ebbf00" d="M21 37a6 6 0 0 0-1 .09 5.993 5.993 0 0 1 0 11.82A6 6 0 1 0 21 37Z"/><path fill="#231f20" d="M44 38a1 1 0 0 1-1-1v-5h-4.54a1 1 0 0 1 0-2H44a1 1 0 0 1 1 1v3.826l5.35-4.585A.994.994 0 0 1 51 30h6a3 3 0 0 0 3-3V7a3 3 0 0 0-3-3H25a3 3 0 0 0-3 3v15a1 1 0 0 1-2 0V7a5.006 5.006 0 0 1 5-5h32a5.006 5.006 0 0 1 5 5v20a5.006 5.006 0 0 1-5 5h-5.63l-6.72 5.759A1 1 0 0 1 44 38Z"/><path fill="#231f20" d="M25 62h-8a1 1 0 0 1-1-1v-4.921c-.235-.09-.472-.187-.711-.294l-3.482 3.482a1 1 0 0 1-.707.293 1 1 0 0 1-.707-.293l-5.66-5.66a1 1 0 0 1 0-1.414l3.482-3.483c-.107-.239-.2-.475-.294-.71H3a1 1 0 0 1-1-1v-8a1 1 0 0 1 1-1h4.921c.09-.235.187-.471.294-.71l-3.482-3.483a1 1 0 0 1 0-1.414l5.66-5.66a1.029 1.029 0 0 1 1.414 0l3.482 3.482c.239-.107.476-.2.711-.294V25a1 1 0 0 1 1-1h8a1 1 0 0 1 1 1v4.921c.235.09.472.187.711.294l3.482-3.482a1 1 0 0 1 .707-.293 1 1 0 0 1 .707.293l5.66 5.66a1 1 0 0 1 0 1.414l-3.482 3.483c.107.239.2.475.294.71H39a1 1 0 0 1 1 1v8a1 1 0 0 1-1 1h-4.921c-.09.235-.187.471-.294.71l3.482 3.483a1 1 0 0 1 0 1.414l-5.66 5.66a1.029 1.029 0 0 1-1.414 0l-3.482-3.482c-.239.107-.476.2-.711.294V61a1 1 0 0 1-1 1Zm-7-2h6v-4.63a1 1 0 0 1 .7-.953 12.323 12.323 0 0 0 1.776-.731 1 1 0 0 1 1.154.187l3.27 3.273 4.246-4.246-3.273-3.273a1 1 0 0 1-.187-1.154 12.328 12.328 0 0 0 .731-1.776 1 1 0 0 1 .953-.7H38V40h-4.63a1 1 0 0 1-.953-.7 12.328 12.328 0 0 0-.731-1.776 1 1 0 0 1 .187-1.154l3.273-3.27-4.246-4.246-3.273 3.273a1 1 0 0 1-1.154.187 12.323 12.323 0 0 0-1.776-.731 1 1 0 0 1-.7-.953V26H18v4.63a1 1 0 0 1-.7.953 12.323 12.323 0 0 0-1.776.731 1 1 0 0 1-1.154-.187l-3.27-3.273L6.854 33.1l3.273 3.273a1 1 0 0 1 .187 1.154 12.328 12.328 0 0 0-.731 1.773 1 1 0 0 1-.953.7H4v6h4.63a1 1 0 0 1 .953.7 12.328 12.328 0 0 0 .731 1.776 1 1 0 0 1-.187 1.154L6.854 52.9l4.246 4.246 3.273-3.273a1 1 0 0 1 1.154-.187 12.323 12.323 0 0 0 1.776.731 1 1 0 0 1 .7.953Z"/><path fill="#231f20" d="M21 50a7 7 0 1 1 7-7 7.008 7.008 0 0 1-7 7zm0-12a5 5 0 1 0 5 5 5.006 5.006 0 0 0-5-5zm20-17a1 1 0 0 1-1-1v-1.43a2.925 2.925 0 0 1 2.011-2.744 3 3 0 0 0 .982-5.068 2.978 2.978 0 0 0-2.359-.737 3 3 0 0 0-2.122 4.655 1 1 0 1 1-1.657 1.12 5 5 0 1 1 5.83 1.913.952.952 0 0 0-.685.861V20a1 1 0 0 1-1 1zm0 5a1 1 0 0 1-1-1v-1a1 1 0 0 1 2 0v1a1 1 0 0 1-1 1z"/></svg>