<svg xmlns="http://www.w3.org/2000/svg" viewBox="0 0 32 32" width="32" height="32"><defs><linearGradient id="a" x1="2" x2="30" y1="16" y2="16" gradientUnits="userSpaceOnUse"><stop offset="0" stop-color="#24b5f7"/><stop offset=".74" stop-color="#8e3cfa"/><stop offset="1" stop-color="#b510fb"/></linearGradient></defs><path fill="url(#a)" d="M12 2H5a3 3 0 0 0-3 3v7a3 3 0 0 0 3 3h7a3 3 0 0 0 3-3V5a3 3 0 0 0-3-3Zm1 10a1 1 0 0 1-1 1H5a1 1 0 0 1-1-1V5a1 1 0 0 1 1-1h7a1 1 0 0 1 1 1ZM27 2h-7a3 3 0 0 0-3 3v7a3 3 0 0 0 3 3h7a3 3 0 0 0 3-3V5a3 3 0 0 0-3-3Zm1 10a1 1 0 0 1-1 1h-7a1 1 0 0 1-1-1V5a1 1 0 0 1 1-1h7a1 1 0 0 1 1 1Zm-16 5H5a3 3 0 0 0-3 3v7a3 3 0 0 0 3 3h7a3 3 0 0 0 3-3v-7a3 3 0 0 0-3-3Zm1 10a1 1 0 0 1-1 1H5a1 1 0 0 1-1-1v-7a1 1 0 0 1 1-1h7a1 1 0 0 1 1 1Zm-3-7H7a2 2 0 0 0-2 2v3a2 2 0 0 0 2 2h3a2 2 0 0 0 2-2v-3a2 2 0 0 0-2-2Zm-3 5v-3h3v3Zm3-20H7a2 2 0 0 0-2 2v3a2 2 0 0 0 2 2h3a2 2 0 0 0 2-2V7a2 2 0 0 0-2-2Zm-3 5V7h3v3Zm18-5h-3a2 2 0 0 0-2 2v3a2 2 0 0 0 2 2h3a2 2 0 0 0 2-2V7a2 2 0 0 0-2-2Zm-3 5V7h3v3Zm8 9a1 1 0 0 1-1 1H18a1 1 0 0 1 0-2h11a1 1 0 0 1 1 1Zm0 3a1 1 0 0 1-1 1H18a1 1 0 0 1 0-2h11a1 1 0 0 1 1 1Zm0 3a1 1 0 0 1-1 1H18a1 1 0 0 1 0-2h11a1 1 0 0 1 1 1Zm0 3a1 1 0 0 1-1 1H18a1 1 0 0 1 0-2h11a1 1 0 0 1 1 1Z" data-name="Layer 30"/></svg>